<?xml version="1.0" encoding="UTF-8"?>
<svg id="Layer_2" data-name="Layer 2" xmlns="http://www.w3.org/2000/svg" viewBox="0 0 60.72 56">
  <defs>
    <style>
      .cls-1 {
        fill: #141414;
      }
    </style>
  </defs>
  <g id="Layer_1-2" data-name="Layer 1">
    <g>
      <path class="cls-1" d="M59.31,30.8h-14.51c-.69,0-1.28.5-1.38,1.17-.23,1.54-.61,3.02-1.1,4.42-1.69,4.86-4.81,8.87-8.74,11.34h.04s10.91-.28,14.56-11.34h0s5.81,0,5.81,0c-2.41,6.93-7.7,12.13-14.14,13.59-1.19.27-2.41.41-3.67.41-2.04,0-4-.37-5.84-1.06-5.44-2.03-9.84-6.82-11.97-12.95-.5-1.41-.87-2.89-1.1-4.42-.1-.68-.69-1.17-1.38-1.17H1.4c-.85,0-1.51.76-1.39,1.6.19,1.37.47,2.7.84,4,3.17,11.35,12.57,19.59,23.65,19.6-5.39-1.83-13.82-6.94-17.79-19.6,0,0,0,0,0,0h0s5.81,0,5.81,0c1.52,5.42,4.46,10.15,8.33,13.59,2.76,2.46,5.99,4.27,9.51,5.23,1.87.51,3.83.78,5.84.78,11.09,0,20.5-8.25,23.67-19.6.36-1.29.64-2.63.84-4,.12-.84-.54-1.6-1.39-1.6Z"/>
      <path class="cls-1" d="M1.4,25.2h14.51c.69,0,1.28-.5,1.38-1.17.23-1.54.61-3.02,1.1-4.42,1.69-4.86,4.8-8.87,8.72-11.34h-.03s-10.91.28-14.56,11.34c0,0,0,0,0,0h-5.81,0c2.4-6.93,7.7-12.14,14.13-13.6,1.19-.27,2.41-.41,3.67-.41,2.04,0,4,.37,5.84,1.06,5.44,2.03,9.84,6.82,11.97,12.95h0s0,0,0,0c.5,1.41.87,2.89,1.1,4.42.1.68.69,1.17,1.38,1.17h14.51c.85,0,1.51-.76,1.39-1.6-.19-1.36-.47-2.7-.84-4C56.7,8.26,47.28,0,36.19,0c5.39,1.83,13.83,6.93,17.81,19.61h0s-5.81,0-5.81,0h0,0c-1.51-5.43-4.46-10.15-8.33-13.6-2.76-2.46-5.99-4.26-9.5-5.23-1.88-.51-3.83-.78-5.84-.78C13.42,0,4.01,8.26.85,19.61h0s0,0,0,0c-.36,1.3-.64,2.63-.84,4-.12.84.54,1.6,1.39,1.6Z"/>
    </g>
  </g>
</svg>