<svg xmlns="http://www.w3.org/2000/svg" fill="none" viewBox="-0.03 4.97 100.05 89.25"><path fill="#000" d="M29.883 84.435c-3.81-2.997-7.873-5.87-10.65-9.915C13.39 67.386 8.891 59.127 5.815 50.448 3.956 44.804 3.32 38.753.923 33.328c-2.507-3.942.43-8.25 4.747-9.502 1.921-.369 5.3-2.181 1.222-.886-3.657 2.684-4.011-2.435-.262-2.76 2.56-.34 3.502-2.435 2.626-4.32-2.746-1.792 6.662-3.76 1.928-6.434-4.932-5.32 6.898-6.344 3.98-.302-.7 4.646 8.266-.852 6.186 4.514 2.113 2.577 7.916.586 7.772 4.201 3.08.212 4.137 2.803 7.028 3.002 2.997 1.354 8.428 2.42 9.448 5.796-2.973 2.354-9.856-4.861-10.187 1.654.898 9.623.669 19.536 4.19 28.7 1.665 5.55 5.702 9.918 9.348 14.24 3.49 4.232 8.215 7.212 13.031 9.721 4.225 1.993 8.78 3.315 13.385 4.143 1.867-1.428 5.164-6.739 8.078-4.5.138 2.517-5.782 5.26-.279 4.983 3.232-.975 5.474 2.499 8.135-.635 2.452 2.905 10.192-1.856 8.447 4.081-2.359 1.523-5.8.602-8.162 2.697-3.896-1.947-6.998 1.74-11.312 1.274-4.79.858-9.662 1.205-14.519 1.212-7.967-.63-16.102-.895-23.682-3.669-4.268-1.24-8.436-3.671-12.188-6.103m6.728 2.915c4.17 1.803 8.246 3.703 12.815 4.276 7.25 1.008 14.735 2.559 22.01 1.144-3.293-1.486-6.697.58-9.977-1.062-3.934.846-8.155-.216-12.155-.74-4.548-2.025-9.456-3.418-13.715-6.047-5.322-1.945 2.752 2.492 4.19 2.851 3.326 1.889-3.659-.967-4.644-1.753-2.786-1.563-3.141-1.236-.276.351.578.338 1.147.692 1.752.98"/></svg>
