<svg xmlns="http://www.w3.org/2000/svg" fill="none" viewBox="0 0 106 103"><path fill="#fff" stroke="#fff" stroke-miterlimit="10" stroke-width="5" d="M94.252 24.498c-.572-1.83-1.944-3.316-3.66-4.23L55.716 3.57C54.8 3.114 53.77 3 52.855 3s-1.943 0-2.858.228l-34.878 16.81c-1.716.8-2.974 2.288-3.431 4.232L3.111 61.892a7.22 7.22 0 0 0 1.258 5.49L28.5 97.227c1.371 1.372 3.315 2.287 5.26 2.401h38.423c2.058.229 4.002-.686 5.26-2.401L101.57 67.38c1.143-1.6 1.601-3.545 1.372-5.489z"/><path fill="#326DE6" d="M94.252 24.498c-.572-1.83-1.944-3.316-3.66-4.23L55.716 3.57C54.8 3.114 53.77 3 52.855 3s-1.943 0-2.858.228l-34.878 16.81c-1.716.8-2.974 2.288-3.431 4.232L3.111 61.892a7.22 7.22 0 0 0 1.258 5.49L28.5 97.227c1.371 1.372 3.315 2.287 5.26 2.401h38.423c2.058.229 4.002-.686 5.26-2.401L101.57 67.38c1.143-1.6 1.601-3.545 1.372-5.489z"/></svg>
