<svg xmlns="http://www.w3.org/2000/svg" fill="none" viewBox="0 0 100 100"><path fill="#8CC84B" d="M46.279 1.067c2.479-1.419 5.709-1.425 8.186 0C66.929 8.11 79.396 15.142 91.858 22.188c2.343 1.32 3.911 3.929 3.887 6.63v42.37c.018 2.813-1.705 5.484-4.178 6.774-12.422 7.004-24.838 14.016-37.259 21.02-2.53 1.447-5.825 1.336-8.277-.23-3.724-2.159-7.455-4.307-11.18-6.464-.76-.454-1.619-.815-2.156-1.553.475-.64 1.324-.72 2.015-1 1.554-.494 2.982-1.287 4.41-2.058.361-.247.802-.152 1.148.07 3.185 1.825 6.342 3.704 9.537 5.513.682.393 1.372-.13 1.955-.454 12.19-6.89 24.396-13.754 36.584-20.645a1.21 1.21 0 0 0 .664-1.192c.009-13.977.002-27.957.005-41.934a1.31 1.31 0 0 0-.781-1.307C75.852 20.756 63.479 13.774 51.102 6.8a1.29 1.29 0 0 0-1.458-.002c-12.378 6.976-24.749 13.965-37.126 20.936-.506.23-.845.738-.785 1.301q.002 20.967 0 41.936a1.19 1.19 0 0 0 .673 1.177c3.303 1.873 6.61 3.733 9.916 5.6 1.861 1.001 4.148 1.597 6.199.829 1.81-.65 3.08-2.497 3.045-4.419.017-13.895-.009-27.793.013-41.687-.046-.617.54-1.126 1.14-1.068 1.586-.011 3.175-.022 4.762.004.663-.015 1.119.65 1.037 1.27-.007 13.984.017 27.968-.01 41.952.003 3.727-1.528 7.782-4.975 9.605-4.247 2.2-9.496 1.734-13.691-.376-3.632-1.812-7.098-3.952-10.666-5.894C6.697 76.681 4.983 74 5 71.19V28.818c-.026-2.757 1.604-5.413 4.021-6.714Q27.651 11.588 46.28 1.067"/></svg>
