<svg xmlns="http://www.w3.org/2000/svg" fill="none" viewBox="0 0 100 100"><path fill="#000" d="M98.472 59.903c-.582-1.766-2.105-2.996-4.074-3.29-.929-.14-1.992-.08-3.251.18-2.194.453-3.821.626-5.009.66 4.483-7.59 8.129-16.246 10.227-24.394 3.394-13.175 1.58-19.177-.539-21.891C90.218 3.982 82.036.12 72.166.003c-5.267-.064-9.89.978-12.3 1.728-2.246-.397-4.66-.619-7.193-.66-4.749-.076-8.944.962-12.529 3.095a57 57 0 0 0-8.848-2.227C22.644.515 15.672 1.625 10.57 5.238c-6.175 4.374-9.038 11.975-8.509 22.59.168 3.37 2.048 13.625 5.009 23.35 1.701 5.59 3.515 10.232 5.392 13.798 2.661 5.057 5.51 8.035 8.706 9.105 1.792.598 5.048 1.017 8.472-1.843.434.528 1.013 1.051 1.782 1.538.976.617 2.17 1.121 3.361 1.42 4.296 1.077 8.319.808 11.752-.701.02.612.037 1.197.05 1.702.023.819.046 1.622.076 2.373.203 5.08.548 9.03 1.57 11.793.055.152.13.383.21.63.51 1.563 1.361 4.181 3.529 6.232 2.244 2.124 4.958 2.775 7.444 2.775 1.247 0 2.437-.164 3.48-.388 3.72-.8 7.944-2.017 11-6.38 2.889-4.124 4.293-10.337 4.547-20.125l.093-.793.06-.518.68.06.176.012c3.788.173 8.42-.632 11.265-1.957 2.248-1.046 9.452-4.86 7.756-10.008"/><path fill="#336791" d="M91.994 60.904c-11.264 2.33-12.038-1.494-12.038-1.494C91.848 41.714 96.82 19.252 92.53 13.754 80.825-1.242 60.564 5.85 60.226 6.034l-.109.02c-2.225-.464-4.716-.74-7.515-.785-5.096-.084-8.963 1.34-11.896 3.57 0 0-36.145-14.931-34.463 18.78.357 7.17 10.25 54.262 22.05 40.038 4.313-5.201 8.48-9.599 8.48-9.599 2.07 1.379 4.547 2.082 7.145 1.83l.202-.172c-.063.645-.034 1.277.08 2.025-3.04 3.406-2.146 4.003-8.223 5.258-6.149 1.27-2.537 3.533-.178 4.125 2.859.716 9.474 1.732 13.943-4.542l-.178.716c1.19.956 2.027 6.222 1.887 10.996-.14 4.773-.234 8.05.704 10.61.94 2.56 1.874 8.32 9.863 6.603 6.674-1.434 10.134-5.151 10.615-11.352.341-4.408 1.114-3.756 1.163-7.697l.62-1.866c.715-5.975.113-7.903 4.225-7.006l1 .088c3.027.138 6.988-.489 9.313-1.572 5.007-2.33 7.976-6.22 3.04-5.198"/></svg>
